<?xml version="1.0" encoding="utf-8"?>
<!-- Generator: Adobe Illustrator 27.9.0, SVG Export Plug-In . SVG Version: 6.00 Build 0)  -->
<svg version="1.1" id="Layer_1" xmlns="http://www.w3.org/2000/svg" xmlns:xlink="http://www.w3.org/1999/xlink" x="0px"
  y="0px" viewBox="0 0 551.746 536.597" style="enable-background:new 0 0 551.746 536.597;" xml:space="preserve">
  <style type="text/css">
    .st0 {
      fill: url(#SVGID_1_);
    }

    .st1 {
      fill: none;
      stroke: #FFFFFF;
      stroke-miterlimit: 10;
    }

    .st2 {
      fill: url(#SVGID_00000134952727984673841020000013304330122049345194_);
    }

    .st3 {
      fill: url(#SVGID_00000039126515479454516140000011422842472577021105_);
    }

    .st4 {
      fill: url(#SVGID_00000095311738027379756820000010746626462065540244_);
    }

    .st5 {
      fill: url(#SVGID_00000111154220425396831490000012483094400097899937_);
    }

    .st6 {
      fill: url(#SVGID_00000180335568515405636480000006966559706717924505_);
    }

    .st7 {
      fill: url(#SVGID_00000084524052186647339800000001932482198706969221_);
    }

    .st8 {
      fill: url(#SVGID_00000078006400580948052590000008902972273762445736_);
    }

    .st9 {
      fill: url(#SVGID_00000054261643005923470030000008295797908205533119_);
    }

    .st10 {
      fill: url(#SVGID_00000182525233165356966730000011171806785943132090_);
    }

    .st11 {
      fill: url(#SVGID_00000148620241091640952500000007161968986082317236_);
    }

    .st12 {
      fill: url(#SVGID_00000013902737491405722960000016129478011315415221_);
    }

    .st13 {
      fill: url(#SVGID_00000124138335959640497020000005312877969383189651_);
    }
  </style>
  <g>

    <linearGradient id="SVGID_1_" gradientUnits="userSpaceOnUse" x1="8.785338e-05" y1="267.5587" x2="551.7462"
      y2="267.5587" gradientTransform="matrix(1 0 0 -1 0 535.8898)">
      <stop offset="0" style="stop-color:#BB6FF6" />
      <stop offset="1" style="stop-color:#7F3AD0" />
    </linearGradient>
    <path class="st0" d="M2.455,225.78c2.54,13.649,18.783,93.501,95.704,143.259c72.523,46.914,146.911,33.393,161.778,30.37
		c-14.719,7.35-41.624,18.357-76.889,19.407c-50.671,1.51-89.714-21.898-90.222-20.593c-0.454,1.166,30.124,20.749,72.444,27.482
		c57.7,9.179,104.67-10.71,119.778-17.333c16.263-7.13,105.696-46.34,132.222-146.889c26.225-99.409-30.572-177.15-37.778-186.667
		C343.454,27.226,297.21,7.468,276.825,0.15c19.586-0.488,48.706,0.886,81.778,10.963c74.376,22.662,158.164,86.117,184.889,189.481
		c27.028,104.535-15.225,207.661-84.444,268.889c-72.229,63.89-156.935,67.222-183.111,67.111
		c-23.154-0.098-114.842-3.374-191.111-76.444c-6.835-6.549-80.787-79.572-84.667-189.778
		C-0.493,251.867,0.977,236.444,2.455,225.78z" />
    <path class="st1" d="M91.048,398.373" />

    <linearGradient id="SVGID_00000076590705818724242600000001615310580393558172_" gradientUnits="userSpaceOnUse"
      x1="425.7562" y1="422.4411" x2="197.4759" y2="172.1896" gradientTransform="matrix(1 0 0 -1 0 535.8898)">
      <stop offset="0" style="stop-color:#BB6FF6" />
      <stop offset="1" style="stop-color:#7F3AD0" />
    </linearGradient>
    <path style="fill:url(#SVGID_00000076590705818724242600000001615310580393558172_);" d="M179.048,427.262
		c20.114,7.075,50.621,15.094,87.852,14.37c75.136-1.461,160.757-38.206,211.037-115.926
		c57.291-88.558,37.182-181.603,33.111-198.889c-15.541-23.65-56.958-79.465-132.889-108.741
		c-39.287-15.147-74.802-18.173-99.26-18.074c17.577,6.341,72.43,28.642,110.519,88c9.27,14.447,40.805,67.335,33.778,138.667
		c-1.433,14.544-5.874,44.12-22.815,77.037c-50.75,98.611-158.09,119.201-167.111,120.778
		C210.929,428.388,191.943,428.155,179.048,427.262z" />
    <g>

      <linearGradient id="SVGID_00000016765826689816025200000001019628877334989964_" gradientUnits="userSpaceOnUse"
        x1="254.266" y1="191.1923" x2="311.877" y2="191.1923" gradientTransform="matrix(1 0 0 -1 0 535.8898)">
        <stop offset="0" style="stop-color:#BB6FF6" />
        <stop offset="1" style="stop-color:#7F3AD0" />
      </linearGradient>
      <path style="fill:url(#SVGID_00000016765826689816025200000001019628877334989964_);" d="M283.071,373.503
			c-15.883,0-28.805-12.922-28.805-28.806c0-15.883,12.922-28.805,28.805-28.805c15.884,0,28.806,12.922,28.806,28.805
			C311.877,360.581,298.955,373.503,283.071,373.503z M283.071,326.892c-9.817,0-17.805,7.987-17.805,17.805
			s7.987,17.806,17.805,17.806s17.806-7.987,17.806-17.806C300.877,334.88,292.889,326.892,283.071,326.892z" />
    </g>
    <g>

      <linearGradient id="SVGID_00000160170068081303622240000004424033588631984277_" gradientUnits="userSpaceOnUse"
        x1="192.511" y1="449.1748" x2="250.121" y2="449.1748" gradientTransform="matrix(1 0 0 -1 0 535.8898)">
        <stop offset="0" style="stop-color:#BB6FF6" />
        <stop offset="1" style="stop-color:#7F3AD0" />
      </linearGradient>
      <path style="fill:url(#SVGID_00000160170068081303622240000004424033588631984277_);" d="M221.316,115.52
			c-15.883,0-28.805-12.922-28.805-28.805s12.922-28.805,28.805-28.805s28.805,12.922,28.805,28.805
			C250.121,102.598,237.199,115.52,221.316,115.52z M221.316,68.91c-9.818,0-17.805,7.987-17.805,17.805s7.987,17.805,17.805,17.805
			s17.805-7.987,17.805-17.805C239.121,76.897,231.133,68.91,221.316,68.91z" />
    </g>
    <g>

      <linearGradient id="SVGID_00000121995913109904904750000008089077611148022186_" gradientUnits="userSpaceOnUse"
        x1="211.893" y1="321.9928" x2="269.503" y2="321.9928" gradientTransform="matrix(1 0 0 -1 0 535.8898)">
        <stop offset="0" style="stop-color:#BB6FF6" />
        <stop offset="1" style="stop-color:#7F3AD0" />
      </linearGradient>
      <path style="fill:url(#SVGID_00000121995913109904904750000008089077611148022186_);" d="M240.698,242.702
			c-15.883,0-28.805-12.922-28.805-28.805s12.922-28.805,28.805-28.805s28.805,12.922,28.805,28.805
			C269.504,229.78,256.582,242.702,240.698,242.702z M240.698,196.092c-9.817,0-17.805,7.987-17.805,17.805
			c0,9.818,7.987,17.805,17.805,17.805s17.805-7.987,17.805-17.805C258.504,204.079,250.516,196.092,240.698,196.092z" />
    </g>

    <linearGradient id="SVGID_00000051342216701641759160000007553907135330282386_" gradientUnits="userSpaceOnUse"
      x1="330.159" y1="361.4798" x2="379.937" y2="361.4798" gradientTransform="matrix(1 0 0 -1 0 535.8898)">
      <stop offset="0" style="stop-color:#BB6FF6" />
      <stop offset="1" style="stop-color:#7F3AD0" />
    </linearGradient>
    <circle style="fill:url(#SVGID_00000051342216701641759160000007553907135330282386_);" cx="355.048" cy="174.41"
      r="24.889" />

    <linearGradient id="SVGID_00000046324938192913422680000011276346632664851847_" gradientUnits="userSpaceOnUse"
      x1="103.01" y1="272.7768" x2="152.788" y2="272.7768" gradientTransform="matrix(1 0 0 -1 0 535.8898)">
      <stop offset="0" style="stop-color:#BB6FF6" />
      <stop offset="1" style="stop-color:#7F3AD0" />
    </linearGradient>
    <circle style="fill:url(#SVGID_00000046324938192913422680000011276346632664851847_);" cx="127.899" cy="263.113"
      r="24.889" />

    <linearGradient id="SVGID_00000124139451157809354180000013945528716094340274_" gradientUnits="userSpaceOnUse"
      x1="61.2742" y1="406.9988" x2="117.2671" y2="406.9988" gradientTransform="matrix(1 0 0 -1 0 535.8898)">
      <stop offset="0" style="stop-color:#BB6FF6" />
      <stop offset="1" style="stop-color:#7F3AD0" />
    </linearGradient>
    <path style="fill:url(#SVGID_00000124139451157809354180000013945528716094340274_);" d="M116.628,129.347
		c-17.254,4.837-21.777,9.492-26.116,26.877c-0.218,0.872-1.455,0.89-1.697,0.024c-4.837-17.254-9.492-21.777-26.877-26.116
		c-0.872-0.218-0.89-1.455-0.024-1.697c17.254-4.837,21.777-9.492,26.116-26.877c0.218-0.872,1.455-0.89,1.697-0.024
		c4.837,17.254,9.492,21.777,26.877,26.116C117.475,127.868,117.493,129.105,116.628,129.347z" />

    <linearGradient id="SVGID_00000142168362401692099250000018286079536993294735_" gradientUnits="userSpaceOnUse"
      x1="115.2324" y1="491.2113" x2="179.8146" y2="491.2113" gradientTransform="matrix(1 0 0 -1 0 535.8898)">
      <stop offset="0" style="stop-color:#BB6FF6" />
      <stop offset="1" style="stop-color:#7F3AD0" />
    </linearGradient>
    <path style="fill:url(#SVGID_00000142168362401692099250000018286079536993294735_);" d="M179.077,45.205
		c-19.9,5.579-25.117,10.947-30.122,30.999c-0.251,1.006-1.678,1.026-1.958,0.028c-5.579-19.9-10.947-25.117-30.999-30.122
		c-1.006-0.251-1.026-1.678-0.028-1.958c19.9-5.579,25.117-10.947,30.122-30.999c0.251-1.006,1.678-1.026,1.958-0.028
		c5.579,19.9,10.947,25.117,30.999,30.122C180.055,43.498,180.075,44.925,179.077,45.205z" />

    <linearGradient id="SVGID_00000096771269369646603960000004380934343583312275_" gradientUnits="userSpaceOnUse"
      x1="254.011" y1="432.2355" x2="328.7303" y2="432.2355" gradientTransform="matrix(1 0 0 -1 0 535.8898)">
      <stop offset="0" style="stop-color:#BB6FF6" />
      <stop offset="1" style="stop-color:#7F3AD0" />
    </linearGradient>
    <path style="fill:url(#SVGID_00000096771269369646603960000004380934343583312275_);" d="M256.381,86.225
		c0,0,0.593-9.333-2.37-14.963c0,0,49.926-6.222,74.667,56.444c1.037,6.889-13.63,12.444-18.296,4.889
		C310.381,132.595,293.492,94.076,256.381,86.225z" />

    <linearGradient id="SVGID_00000129892231250203222800000008675517863261599648_" gradientUnits="userSpaceOnUse"
      x1="185.5811" y1="383.1463" x2="222.307" y2="383.1463" gradientTransform="matrix(1 0 0 -1 0 535.8898)">
      <stop offset="0" style="stop-color:#BB6FF6" />
      <stop offset="1" style="stop-color:#7F3AD0" />
    </linearGradient>
    <path style="fill:url(#SVGID_00000129892231250203222800000008675517863261599648_);" d="M207.344,120.299
		c-4.935-1.704-8.857-4.904-12.148-9.037c-19.852,24.444-6.37,73.63,16.889,82.963c3.005-3.556,6.447-6.575,10.222-9.185
		C204.974,168.891,200.233,132.891,207.344,120.299z" />

    <linearGradient id="SVGID_00000073705277046147347940000016418323338075478199_" gradientUnits="userSpaceOnUse"
      x1="263.936" y1="261.8513" x2="310.9939" y2="261.8513" gradientTransform="matrix(1 0 0 -1 0 535.8898)">
      <stop offset="0" style="stop-color:#BB6FF6" />
      <stop offset="1" style="stop-color:#7F3AD0" />
    </linearGradient>
    <path style="fill:url(#SVGID_00000073705277046147347940000016418323338075478199_);" d="M263.936,242.15
		c4.186-2.408,6.655-6.179,8.222-10.667c33.333,12.222,48,60.889,32.889,85.111c-4.365-3.463-8.735-5.301-13.111-5.333
		C296.381,291.039,286.055,259.766,263.936,242.15z" />

    <linearGradient id="SVGID_00000176744362575646277520000013813408604939894180_" gradientUnits="userSpaceOnUse"
      x1="163.4426" y1="208.8041" x2="251.714" y2="208.8041" gradientTransform="matrix(1 0 0 -1 0 535.8898)">
      <stop offset="0" style="stop-color:#BB6FF6" />
      <stop offset="1" style="stop-color:#7F3AD0" />
    </linearGradient>
    <path style="fill:url(#SVGID_00000176744362575646277520000013813408604939894180_);" d="M247.492,344.373
		c1.499,6.715,2.679,11.387,4.222,13.778c-21.111,9.333-65.91-13.994-86.889-50c-5.556-9.556,6.889-18.444,15.111-12
		C199.048,323.706,219.492,341.928,247.492,344.373z" />
  </g>
</svg>